<svg x="0" y="0" width="700" height="350" viewBox="0 0 700 350" xmlns="http://www.w3.org/2000/svg" xmlns:xlink="http://www.w3.org/1999/xlink" xmlns:fi="http://pattern.flaticon.com/"><rect x="0px" y="0px" width="100%" height="100%" opacity="0" fill="#ffffff"/><defs><g transform="matrix(1.034482717514038 0 0 1.034482717514038 150 27.000001907348633)" id="L1_1"><path d="M29,48c-14.359,0-26-2.962-26-6v6.996C3.008,52.032,14.645,55,29,55   s25.992-2.968,26-6.004V42C55,45.038,43.359,48,29,48" id="XMLID_148_" fill="#e4af18"/><path d="M26,37c-14.359,0-26-2.962-26-6v6.996C0.008,41.032,11.645,44,26,44   s25.992-2.968,26-6.004V31C52,34.038,40.359,37,26,37" id="XMLID_147_" fill="#f4bf1a"/><path d="M32,26c-14.359,0-26-2.962-26-6v6.996C6.008,30.032,17.645,33,32,33   s25.992-2.968,26-6.004V20C58,23.038,46.359,26,32,26" id="XMLID_146_" fill="#e4af18"/><path d="M52,8.13C52,11.167,40.359,14,26,14C11.641,14,0,11.167,0,8.13   C0,5.092,11.641,3,26,3C40.359,3,52,5.092,52,8.13" id="XMLID_145_" fill="#ffd949"/><path d="M26,14C11.641,14,0,11.038,0,8v6.996C0.008,18.032,11.645,21,26,21   s25.992-2.968,26-6.004V8C52,11.038,40.359,14,26,14" id="XMLID_144_" fill="#f4bf1a"/><path d="M4,11.074v6.995c0.608,0.224,1.274,0.44,2,0.646v-6.996   C5.274,11.513,4.608,11.297,4,11.074" id="XMLID_143_" fill="#dca815"/><path d="M46,11.719v6.996c0.726-0.206,1.392-0.422,2-0.646v-6.995   C47.392,11.298,46.726,11.513,46,11.719" id="XMLID_142_" fill="#dca815"/><path d="M9,12.445v6.997c0.64,0.133,1.307,0.259,2,0.378v-6.997   C10.307,12.704,9.64,12.578,9,12.445" id="XMLID_141_" fill="#dca815"/><path d="M41,12.823v6.998c0.693-0.12,1.36-0.246,2-0.379v-6.997   C42.36,12.578,41.693,12.704,41,12.823" id="XMLID_140_" fill="#dca815"/><path d="M14,13.269v6.998c0.652,0.084,1.317,0.162,2,0.232v-6.998   C15.317,13.431,14.652,13.352,14,13.269" id="XMLID_139_" fill="#dca815"/><path d="M36,13.502V20.5c0.683-0.071,1.348-0.149,2-0.232v-6.999   C37.348,13.354,36.683,13.432,36,13.502" id="XMLID_138_" fill="#dca815"/><path d="M19,13.759v6.999c0.657,0.046,1.323,0.087,2,0.12v-7   C20.323,13.845,19.657,13.805,19,13.759" id="XMLID_137_" fill="#dca815"/><path d="M31,13.878v7c0.677-0.033,1.343-0.074,2-0.12v-6.999   C32.343,13.805,31.677,13.845,31,13.878" id="XMLID_136_" fill="#dca815"/><path d="M26,14c-0.335,0-0.668-0.003-1-0.006v7C25.332,20.997,25.665,21,26,21   s0.668-0.003,1-0.006v-7C26.668,13.997,26.335,14,26,14" id="XMLID_135_" fill="#dca815"/><path d="M10,23.074v6.995c0.608,0.224,1.274,0.44,2,0.646v-6.996   C11.274,23.513,10.608,23.297,10,23.074" id="XMLID_134_" fill="#c49214"/><path d="M52,23.719v6.996c0.726-0.206,1.392-0.422,2-0.646v-6.995   C53.392,23.298,52.726,23.513,52,23.719" id="XMLID_133_" fill="#c49214"/><path d="M15,24.445v6.997c0.64,0.133,1.307,0.259,2,0.378v-6.997   C16.307,24.704,15.64,24.578,15,24.445" id="XMLID_132_" fill="#c49214"/><path d="M47,24.823v6.998c0.693-0.12,1.36-0.246,2-0.379v-6.997   C48.36,24.578,47.693,24.704,47,24.823" id="XMLID_131_" fill="#c49214"/><path d="M20,25.27v6.998c0.652,0.084,1.317,0.162,2,0.232v-6.998   C21.317,25.431,20.652,25.353,20,25.27" id="XMLID_130_" fill="#c49214"/><path d="M42,25.501V32.5c0.683-0.071,1.348-0.149,2-0.232V25.27   C43.348,25.354,42.683,25.432,42,25.501" id="XMLID_129_" fill="#c49214"/><path d="M25,25.759v6.999c0.657,0.046,1.323,0.087,2,0.12v-7   C26.323,25.845,25.657,25.805,25,25.759" id="XMLID_128_" fill="#c49214"/><path d="M37,25.878v7c0.677-0.033,1.343-0.074,2-0.12v-6.999   C38.343,25.805,37.677,25.845,37,25.878" id="XMLID_127_" fill="#c49214"/><path d="M32,26c-0.335,0-0.668-0.003-1-0.006v7C31.332,32.997,31.665,33,32,33   s0.668-0.003,1-0.006v-7C32.668,25.997,32.335,26,32,26" id="XMLID_126_" fill="#c49214"/><path d="M4,34.074v6.995c0.608,0.224,1.274,0.439,2,0.646v-6.996   C5.274,34.513,4.608,34.297,4,34.074" id="XMLID_125_" fill="#dca815"/><path d="M46,34.719v6.996c0.726-0.206,1.392-0.422,2-0.646v-6.995   C47.392,34.298,46.726,34.513,46,34.719" id="XMLID_124_" fill="#dca815"/><path d="M9,35.445v6.997c0.64,0.133,1.307,0.259,2,0.378v-6.997   C10.307,35.704,9.64,35.578,9,35.445" id="XMLID_123_" fill="#dca815"/><path d="M41,35.823v6.998c0.693-0.12,1.36-0.246,2-0.379v-6.997   C42.36,35.578,41.693,35.704,41,35.823" id="XMLID_122_" fill="#dca815"/><path d="M14,36.27v6.998c0.652,0.084,1.317,0.162,2,0.232v-6.998   C15.317,36.431,14.652,36.353,14,36.27" id="XMLID_121_" fill="#dca815"/><path d="M36,36.501V43.5c0.683-0.071,1.348-0.149,2-0.232V36.27   C37.348,36.354,36.683,36.432,36,36.501" id="XMLID_120_" fill="#dca815"/><path d="M19,36.759v6.999c0.657,0.046,1.323,0.087,2,0.12v-7   C20.323,36.845,19.657,36.805,19,36.759" id="XMLID_119_" fill="#dca815"/><path d="M31,36.878v7c0.677-0.033,1.343-0.074,2-0.12v-6.999   C32.343,36.805,31.677,36.845,31,36.878" id="XMLID_118_" fill="#dca815"/><path d="M26,37c-0.335,0-0.668-0.003-1-0.006v7C25.332,43.997,25.665,44,26,44   s0.668-0.003,1-0.006v-7C26.668,36.997,26.335,37,26,37" id="XMLID_117_" fill="#dca815"/><path d="M7,45.074v6.995c0.608,0.224,1.274,0.439,2,0.646v-6.996   C8.274,45.513,7.608,45.297,7,45.074" id="XMLID_116_" fill="#c49214"/><path d="M49,45.719v6.996c0.726-0.206,1.392-0.422,2-0.646v-6.995   C50.392,45.298,49.726,45.513,49,45.719" id="L1_3" fill="#c49214"/><path d="M12,46.445v6.997c0.64,0.133,1.307,0.259,2,0.378v-6.997   C13.307,46.704,12.64,46.578,12,46.445" id="L1_4" fill="#c49214"/><path d="M44,46.823v6.998c0.693-0.12,1.36-0.246,2-0.379v-6.997   C45.36,46.578,44.693,46.704,44,46.823" id="L1_5" fill="#c49214"/><path d="M17,47.27v6.998c0.652,0.084,1.317,0.162,2,0.232v-6.998   C18.317,47.431,17.652,47.353,17,47.27" id="L1_6" fill="#c49214"/><path d="M39,47.501V54.5c0.683-0.071,1.348-0.149,2-0.232V47.27   C40.348,47.354,39.683,47.432,39,47.501" id="L1_7" fill="#c49214"/><path d="M22,47.759v6.999c0.657,0.046,1.323,0.087,2,0.12v-7   C23.323,47.845,22.657,47.805,22,47.759" id="L1_8" fill="#c49214"/><path d="M34,47.878v7c0.677-0.033,1.343-0.074,2-0.12v-6.999   C35.343,47.805,34.677,47.845,34,47.878" id="L1_9" fill="#c49214"/><path d="M29,48c-0.335,0-0.668-0.003-1-0.006v7C28.332,54.997,28.665,55,29,55   s0.668-0.003,1-0.006v-7C29.668,47.997,29.335,48,29,48" id="L1_10" fill="#c49214"/><path d="M51.212,39.372C48.372,41.87,38.163,44,26,44c-9.51,0-17.823-1.303-22.356-3.065   C3.227,41.313,3,41.713,3,42.13C3,45.168,14.641,48,29,48c14.36,0,26-2.832,26-5.87C55,41.083,53.615,40.147,51.212,39.372" id="L1_11" fill="#fcc62d"/><path d="M32,33c-13.213,0-24.116-2.515-25.774-5.283C2.347,28.596,0,29.767,0,31.13   C0,34.167,11.641,37,26,37c14.359,0,26-2.833,26-5.87c0-0.134-0.03-0.265-0.075-0.395C47.156,32.077,40.002,33,32,33" id="L1_12" fill="#ffd949"/><path d="M50.993,16.549C47.882,18.969,37.874,21,26,21c-7.668,0-14.559-0.848-19.318-2.1   C6.241,19.29,6,19.7,6,20.13C6,23.168,17.641,26,32,26c14.359,0,26-2.832,26-5.87C58,18.678,55.337,17.443,50.993,16.549" id="L1_13" fill="#fcc62d"/></g><g transform="matrix(0.10028410702943802 0 0 0.10028410702943802 -26.664583206176758 90.33541107177734)" id="L1_15"><path d="M 555.878906 168.519531 L 449.105469 61.542969 L 449.105469 490.230469 L 592 490.230469 L 592 255.378906 C 592 222.769531 578.996094 191.507812 555.878906 168.519531 Z M 555.878906 168.519531 " fill="#ffb782" fill-opacity="1" stroke="none"/><path d="M 83.457031 412.117188 L 2.738281 202.570312 C -5.363281 181.535156 5.117188 157.90625 26.164062 149.800781 L 407.15625 3.046875 C 428.191406 -5.054688 451.820312 5.425781 459.921875 26.472656 L 540.640625 236.019531 C 548.742188 257.054688 538.261719 280.683594 517.214844 288.789062 L 136.234375 435.542969 C 115.1875 443.644531 91.570312 433.152344 83.457031 412.117188 Z M 83.457031 412.117188 " fill="#de4c3c" fill-opacity="1" stroke="none"/><path d="M 489.011719 101.960938 L 32.195312 279.03125 L 62.613281 357.992188 L 519.449219 181.003906 Z M 489.011719 101.960938 " fill="#7a4930" fill-opacity="1" stroke="none"/><path d="M 0.00390625 265.679688 L 0.00390625 41.128906 C 0.00390625 18.582031 18.285156 0.300781 40.832031 0.300781 L 449.105469 0.300781 C 471.652344 0.300781 489.933594 18.582031 489.933594 41.128906 L 489.933594 265.679688 C 489.933594 288.226562 471.652344 306.507812 449.105469 306.507812 L 40.832031 306.507812 C 18.285156 306.507812 0.00390625 288.226562 0.00390625 265.679688 Z M 0.00390625 265.679688 " fill="#4398d1" fill-opacity="1" stroke="none"/><path d="M 449.105469 0.300781 L 405.726562 0.300781 L 99.519531 306.507812 L 449.105469 306.507812 C 471.652344 306.507812 489.933594 288.226562 489.933594 265.679688 L 489.933594 41.128906 C 489.933594 18.582031 471.652344 0.300781 449.105469 0.300781 Z M 449.105469 0.300781 " fill="#3e8cc7" fill-opacity="1" stroke="none"/><path d="M 40.832031 163.609375 L 81.660156 163.609375 L 81.660156 184.023438 L 40.832031 184.023438 Z M 40.832031 163.609375 " fill="#5eb3d1" fill-opacity="1" stroke="none"/><path d="M 40.832031 224.851562 L 81.660156 224.851562 L 81.660156 245.265625 L 40.832031 245.265625 Z M 40.832031 224.851562 " fill="#5eb3d1" fill-opacity="1" stroke="none"/><path d="M 224.554688 224.851562 L 265.382812 224.851562 L 265.382812 245.265625 L 224.554688 245.265625 Z M 224.554688 224.851562 " fill="#5eb3d1" fill-opacity="1" stroke="none"/><path d="M 102.074219 163.609375 L 142.898438 163.609375 L 142.898438 184.023438 L 102.074219 184.023438 Z M 102.074219 163.609375 " fill="#5eb3d1" fill-opacity="1" stroke="none"/><path d="M 163.3125 163.609375 L 204.140625 163.609375 L 204.140625 184.023438 L 163.3125 184.023438 Z M 163.3125 163.609375 " fill="#5eb3d1" fill-opacity="1" stroke="none"/><path d="M 224.554688 163.609375 L 265.382812 163.609375 L 265.382812 184.023438 L 224.554688 184.023438 Z M 224.554688 163.609375 " fill="#5eb3d1" fill-opacity="1" stroke="none"/><path d="M 418.484375 41.128906 L 438.898438 41.128906 L 438.898438 71.75 L 418.484375 71.75 Z M 418.484375 41.128906 " fill="#5eb3d1" fill-opacity="1" stroke="none"/><path d="M 377.65625 41.128906 L 398.070312 41.128906 L 398.070312 71.75 L 377.65625 71.75 Z M 377.65625 41.128906 " fill="#5eb3d1" fill-opacity="1" stroke="none"/><path d="M 336.828125 41.128906 L 357.242188 41.128906 L 357.242188 71.75 L 336.828125 71.75 Z M 336.828125 41.128906 " fill="#5eb3d1" fill-opacity="1" stroke="none"/><path d="M 296.003906 41.128906 L 316.414062 41.128906 L 316.414062 71.75 L 296.003906 71.75 Z M 296.003906 41.128906 " fill="#5eb3d1" fill-opacity="1" stroke="none"/><path d="M 408.277344 490.230469 L 592 490.230469 L 592 592.296875 L 408.277344 592.296875 Z M 408.277344 490.230469 " fill="#88b337" fill-opacity="1" stroke="none"/><path d="M 378.320312 184.6875 C 361.007812 167.4375 332.992188 167.488281 315.742188 184.800781 C 299.0625 201.539062 298.484375 228.433594 314.425781 245.878906 L 398.070312 337.128906 C 372.929688 381.128906 374.003906 435.386719 400.855469 478.359375 L 408.277344 490.230469 L 540.964844 490.230469 L 540.964844 347.335938 Z M 378.320312 184.6875 " fill="#ffb782" fill-opacity="1" stroke="none"/><path d="M 438.898438 520.851562 L 459.3125 520.851562 L 459.3125 541.265625 L 438.898438 541.265625 Z M 438.898438 520.851562 " fill="#6b962a" fill-opacity="1" stroke="none"/><path d="M 40.832031 106.453125 L 40.832031 57.460938 C 40.832031 48.4375 48.140625 41.128906 57.164062 41.128906 L 106.15625 41.128906 C 115.179688 41.128906 122.484375 48.4375 122.484375 57.460938 L 122.484375 106.453125 C 122.484375 115.476562 115.179688 122.785156 106.15625 122.785156 L 57.164062 122.785156 C 48.140625 122.785156 40.832031 115.476562 40.832031 106.453125 Z M 40.832031 106.453125 " fill="#fdb62f" fill-opacity="1" stroke="none"/><path d="M 40.832031 71.75 L 71.453125 71.75 L 71.453125 92.164062 L 40.832031 92.164062 Z M 40.832031 71.75 " fill="#fd7b2f" fill-opacity="1" stroke="none"/><path d="M 91.867188 71.75 L 122.484375 71.75 L 122.484375 92.164062 L 91.867188 92.164062 Z M 91.867188 71.75 " fill="#fd7b2f" fill-opacity="1" stroke="none"/><path d="M 530.757812 347.335938 C 528.054688 347.335938 525.453125 346.261719 523.542969 344.34375 L 482.714844 303.515625 C 478.796875 299.464844 478.910156 293.003906 482.972656 289.082031 C 486.933594 285.265625 493.199219 285.265625 497.148438 289.082031 L 537.976562 329.910156 C 541.957031 333.902344 541.957031 340.363281 537.976562 344.34375 C 536.054688 346.261719 533.464844 347.335938 530.757812 347.335938 Z M 530.757812 347.335938 " fill="#f2a46f" fill-opacity="1" stroke="none"/></g><g transform="matrix(0.1171875 0 0 0.1171875 116 207)" id="L1_16"><path d="M488.727,325.818H23.273C10.473,325.818,0,315.345,0,302.545v-256  c0-12.8,10.473-23.273,23.273-23.273h465.455c12.8,0,23.273,10.473,23.273,23.273v256C512,315.345,501.527,325.818,488.727,325.818z  " fill="#0e9347"/><path d="M430.545,232.727c-26.764,0-51.2,12.8-65.164,33.745C353.745,260.655,340.945,256,325.818,256  c-40.727,0-74.473,30.255-80.291,69.818h243.2c11.636,0,20.945-8.145,23.273-19.782  C507.345,265.309,472.436,232.727,430.545,232.727z" fill="#0d8944"/><path d="M442.182,302.545H69.818c0-25.6-20.945-46.545-46.545-46.545V93.091  c25.6,0,46.545-20.945,46.545-46.545h372.364c0,25.6,20.945,46.545,46.545,46.545V256C463.127,256,442.182,276.945,442.182,302.545z  " fill="#3bb54a"/><g><path d="M430.545,232.727c-26.764,0-51.2,12.8-65.164,33.745C353.745,260.655,340.945,256,325.818,256   c-32.582,0-60.509,18.618-73.309,46.545h189.673c0-25.6,19.782-45.382,45.382-46.545   C472.436,242.036,452.655,232.727,430.545,232.727z" fill="#0e9347"/><ellipse cx="256px" cy="174px" rx="93px" ry="104px" fill="#0e9347"/><circle cx="116" cy="174" r="23" fill="#0e9347"/><circle cx="395" cy="174" r="23" fill="#0e9347"/></g><path d="M267.636,162.909h-23.273c-6.982,0-11.636-4.655-11.636-11.636c0-6.982,4.655-11.636,11.636-11.636  h34.909c6.982,0,11.636-4.655,11.636-11.636c0-6.982-4.655-11.636-11.636-11.636h-11.636c0-6.982-4.655-11.636-11.636-11.636  c-6.982,0-11.636,4.655-11.636,11.636c-19.782,0-34.909,15.127-34.909,34.909s15.127,34.909,34.909,34.909h23.273  c6.982,0,11.636,4.655,11.636,11.636c0,6.982-4.655,11.636-11.636,11.636h-34.909c-6.982,0-11.636,4.655-11.636,11.636  c0,6.982,4.655,11.636,11.636,11.636h11.636c0,6.982,4.655,11.636,11.636,11.636c6.982,0,11.636-4.655,11.636-11.636  c19.782,0,34.909-15.127,34.909-34.909S287.418,162.909,267.636,162.909z" fill="#89c763"/><circle cx="302" cy="337" r="81" fill="#ffca5d"/><circle cx="407" cy="314" r="81" fill="#f6b545"/><path d="M407.273,232.727c-45.382,0-81.455,36.073-81.455,81.455s36.073,81.455,81.455,81.455  s81.455-36.073,81.455-81.455S452.655,232.727,407.273,232.727z M407.273,372.364c-32.582,0-58.182-25.6-58.182-58.182  S374.691,256,407.273,256s58.182,25.6,58.182,58.182S439.855,372.364,407.273,372.364z" fill="#ffcb5b"/><path d="M407.273,394.473L407.273,394.473c45.382,1.164,81.455-36.073,81.455-80.291h-1.164  c-5.818,0-10.473,4.655-11.636,10.473c-2.327,16.291-10.473,31.418-22.109,41.891c-9.309,9.309-22.109,15.127-36.073,17.454  C411.927,384,407.273,388.655,407.273,394.473z" fill="#f6b545"/><path d="M407.273,233.891L407.273,233.891c-45.382-1.164-81.455,36.073-81.455,80.291h1.164  c5.818,0,10.473-4.655,11.636-10.473c2.327-16.291,10.473-31.418,22.109-41.891c9.309-9.309,22.109-15.127,36.073-17.455  C402.618,244.364,407.273,239.709,407.273,233.891z" fill="#ffe27a"/><path d="M357.236,322.327c0-32.582,25.6-58.182,58.182-58.182c13.964,0,26.764,4.655,37.236,13.964  C441.018,264.145,425.891,256,407.273,256c-32.582,0-58.182,25.6-58.182,58.182c0,18.618,8.145,33.745,20.945,44.218  C361.891,349.091,357.236,336.291,357.236,322.327z" fill="#f19920"/><path d="M442.182,350.255c-1.164,0-2.327,0-3.491-1.164c-2.327-2.327-2.327-5.818,0-8.145  c6.982-6.982,10.473-17.455,10.473-26.764c0-3.491,2.327-5.818,5.818-5.818c3.491,0,5.818,2.327,5.818,5.818  c0,12.8-4.655,25.6-12.8,34.909C445.673,350.255,443.345,350.255,442.182,350.255z" fill="#ffcb5b"/><g><path d="M407.273,349.091c-6.982,0-11.636-4.655-11.636-11.636v-46.545c0-6.982,4.655-11.636,11.636-11.636   s11.636,4.655,11.636,11.636v46.545C418.909,344.436,414.255,349.091,407.273,349.091z" fill="#f19920"/><path d="M450.327,382.836c-8.145-29.091-29.091-52.364-55.855-62.836c-4.655-26.764-22.109-50.036-44.218-64   c-13.964,15.127-23.273,34.909-23.273,57.018c0,45.382,36.073,81.455,81.455,81.455   C423.564,395.636,437.527,390.982,450.327,382.836z" fill="#f19920"/></g><g><path d="M370.036,358.4c-8.145-10.473-13.964-23.273-13.964-37.236c0-16.291,6.982-31.418,18.618-41.891   c-2.327-3.491-4.655-5.818-6.982-8.145c-11.636,10.473-18.618,25.6-18.618,43.055C349.091,332.8,357.236,347.927,370.036,358.4z" fill="#e78825"/><path d="M395.636,321.164v16.291c0,6.982,4.655,11.636,11.636,11.636s11.636-4.655,11.636-11.636v-2.327   C411.927,329.309,403.782,324.655,395.636,321.164z" fill="#e78825"/></g><path d="M450.327,382.836c-2.327-8.145-4.655-15.127-9.309-22.109c-9.309,6.982-20.945,11.636-33.745,11.636  c-32.582,0-58.182-25.6-58.182-58.182c0-17.455,6.982-32.582,18.618-43.055c-5.818-5.818-11.636-10.473-18.618-13.964  c-13.964,15.127-23.273,34.909-23.273,57.018c0,45.382,36.073,81.455,81.455,81.455  C423.564,395.636,437.527,390.982,450.327,382.836z" fill="#f6b545"/><path d="M446.836,372.364c-8.145,5.818-18.618,9.309-29.091,11.636c-5.818,1.164-10.473,5.818-10.473,11.636  l0,0c16.291,0,30.255-4.655,43.055-12.8C449.164,379.345,448,375.855,446.836,372.364z" fill="#f19920"/><path d="M349.091,257.164c-13.964,15.127-23.273,34.909-23.273,57.018h1.164  c5.818,0,10.473-4.655,11.636-10.473c2.327-16.291,10.473-30.255,20.945-40.727C356.073,261.818,352.582,259.491,349.091,257.164z" fill="#ffcb5b"/><circle cx="302" cy="337" r="81" fill="#f6b545"/><path d="M290.909,395.636c0,8.145,1.164,15.127,3.491,23.273c2.327,0,5.818,0,8.145,0  c45.382,0,81.455-36.073,81.455-81.455c0-8.145-1.164-15.127-3.491-23.273c-2.327,0-5.818,0-8.145,0  C326.982,314.182,290.909,350.255,290.909,395.636z" fill="#f19920"/><path d="M302.545,256c-45.382,0-81.455,36.073-81.455,81.455s36.073,81.455,81.455,81.455  S384,382.836,384,337.455S347.927,256,302.545,256z M302.545,395.636c-32.582,0-58.182-25.6-58.182-58.182  s25.6-58.182,58.182-58.182s58.182,25.6,58.182,58.182S335.127,395.636,302.545,395.636z" fill="#ffcb5b"/><path d="M302.545,417.745L302.545,417.745C347.927,418.909,384,381.673,384,337.455h-1.164  c-5.818,0-10.473,4.655-11.636,10.473c-2.327,16.291-10.473,31.418-22.109,41.891c-9.309,9.309-22.109,15.127-36.073,17.455  C307.2,407.273,302.545,411.927,302.545,417.745z" fill="#f6b545"/><path d="M302.545,257.164L302.545,257.164c-45.382-1.164-81.455,36.073-81.455,80.291h1.164  c5.818,0,10.473-4.655,11.636-10.473c2.327-16.291,10.473-31.418,22.109-41.891c9.309-9.309,22.109-15.127,36.073-17.455  C297.891,267.636,302.545,262.982,302.545,257.164z" fill="#ffe27a"/><path d="M252.509,345.6c0-32.582,25.6-58.182,58.182-58.182c13.964,0,26.764,4.655,37.236,13.964  c-11.636-13.964-26.764-22.109-45.382-22.109c-32.582,0-58.182,25.6-58.182,58.182c0,18.618,8.145,33.745,20.945,44.218  C257.164,372.364,252.509,359.564,252.509,345.6z" fill="#f19920"/><path d="M337.455,373.527c-1.164,0-2.327,0-3.491-1.164c-2.327-2.327-2.327-5.818,0-8.145  c6.982-6.982,10.473-17.455,10.473-26.764c0-3.491,2.327-5.818,5.818-5.818c3.491,0,5.818,2.327,5.818,5.818  c0,12.8-4.655,25.6-12.8,34.909C340.945,373.527,338.618,373.527,337.455,373.527z" fill="#ffcb5b"/><path d="M302.545,372.364c-6.982,0-11.636-4.655-11.636-11.636v-46.545c0-6.982,4.655-11.636,11.636-11.636  c6.982,0,11.636,4.655,11.636,11.636v46.545C314.182,367.709,309.527,372.364,302.545,372.364z" fill="#f19920"/><g><path d="M356.073,315.345c2.327,6.982,4.655,13.964,4.655,22.109c0,32.582-25.6,58.182-58.182,58.182   c-3.491,0-8.145,0-11.636-1.164v1.164c0,8.145,1.164,15.127,3.491,23.273c2.327,0,5.818,0,8.145,0   c45.382,0,81.455-36.073,81.455-81.455c0-8.145-1.164-15.127-3.491-23.273c-2.327,0-5.818,0-8.145,0   C366.545,314.182,361.891,314.182,356.073,315.345z" fill="#f6b545"/><circle cx="360" cy="407" r="81" fill="#f6b545"/></g><path d="M360.727,325.818c-45.382,0-81.455,36.073-81.455,81.455s36.073,81.455,81.455,81.455  s81.455-36.073,81.455-81.455S406.109,325.818,360.727,325.818z M360.727,465.455c-32.582,0-58.182-25.6-58.182-58.182  s25.6-58.182,58.182-58.182s58.182,25.6,58.182,58.182S393.309,465.455,360.727,465.455z" fill="#ffcb5b"/><path d="M360.727,487.564L360.727,487.564c45.382,1.164,81.455-36.073,81.455-80.291h-1.164  c-5.818,0-10.473,4.655-11.636,10.473c-2.327,16.291-10.473,31.418-22.109,41.891c-9.309,9.309-22.109,15.127-36.073,17.455  C365.382,477.091,360.727,481.745,360.727,487.564z" fill="#f6b545"/><path d="M360.727,326.982L360.727,326.982c-45.382-1.164-81.455,36.073-81.455,80.291h1.164  c5.818,0,10.473-4.655,11.636-10.473c2.327-16.291,10.473-31.418,22.109-41.891c9.309-9.309,22.109-15.127,36.073-17.455  C356.073,337.455,360.727,332.8,360.727,326.982z" fill="#ffe27a"/><path d="M310.691,415.418c0-32.582,25.6-58.182,58.182-58.182c13.964,0,26.764,4.655,37.236,13.964  c-11.636-13.964-26.764-22.109-45.382-22.109c-32.582,0-58.182,25.6-58.182,58.182c0,18.618,8.145,33.745,20.945,44.218  C315.345,442.182,310.691,429.382,310.691,415.418z" fill="#f19920"/><path d="M395.636,443.345c-1.164,0-2.327,0-3.491-1.164c-2.327-2.327-2.327-5.818,0-8.145  c6.982-6.982,10.473-17.455,10.473-26.764c0-3.491,2.327-5.818,5.818-5.818s5.818,2.327,5.818,5.818c0,12.8-4.655,25.6-12.8,34.909  C399.127,443.345,396.8,443.345,395.636,443.345z" fill="#ffcb5b"/><path d="M360.727,442.182c-6.982,0-11.636-4.655-11.636-11.636V384c0-6.982,4.655-11.636,11.636-11.636  c6.982,0,11.636,4.655,11.636,11.636v46.545C372.364,437.527,367.709,442.182,360.727,442.182z" fill="#f19920"/></g><g transform="matrix(0.12055939435958862 0 0 0.12055939435958862 274 259)"><path d="M464.04,404.82c0,97.6-96,92-215.2,92s-215.2,4.8-215.2-92c0-97.6,96-260,215.2-260  C368.04,145.62,464.04,308.02,464.04,404.82z" fill="#f2b233"/><path d="M248.84,145.62c119.2,0,215.2,162.4,215.2,260s-96,92-215.2,92" fill="#dd981d"/><path d="M144.04,44.82c0-47.2,47.2-44.8,104.8-44.8s104.8-2.4,104.8,44.8s-47.2,126.4-104.8,126.4  S144.04,92.02,144.04,44.82z" fill="#f2b233"/><path d="M248.84,0.02c57.6,0,104.8-2.4,104.8,44.8s-47.2,126.4-104.8,126.4" fill="#dd981d"/><path d="M340.84,154.42c0,8-6.4,14.4-14.4,14.4h-155.2c-8,0-14.4-6.4-14.4-14.4v-4c0-8,6.4-14.4,14.4-14.4  h156c8,0,14.4,6.4,14.4,14.4v4H340.84z" fill="#04af76"/><path d="M168.84,136.82h158.4c8,0,14.4,6.4,14.4,14.4v4c0,8-8,14.4-16,14.4" fill="#008c61"/><circle cx="248" cy="339" r="96" fill="#04af76"/><path d="M180.84,271.22c37.6-37.6,98.4-37.6,136,0s37.6,98.4,0,136" fill="#008c61"/><path d="M240.84,416.82v-20c-16-0.8-24.8-4-32-8l4.8-21.6c8,4,18.4,8,30.4,8c10.4,0,17.6-4,17.6-11.2  s-5.6-11.2-20-16c-20-6.4-32.8-16-32.8-33.6c0-16,7.2-28.8,31.2-32.8v-16.8h16v16c16,0.8,21.6,3.2,27.2,6.4l-4.8,20.8  c-4.8-2.4-12.8-6.4-26.4-6.4c-12,0-16,4.8-16,10.4c0,6.4,6.4,9.6,22.4,16c21.6,8,30.4,17.6,30.4,34.4s-8.8,30.4-32.8,34.4v20H240.84  z" fill="#fff6e1"/><g><path d="M248.84,264.82v36.8c0,0,2.4,0,4,0c13.6,0,21.6,4,26.4,6.4l4.8-20.8c-6.4-3.2-11.2-6.4-27.2-6.4v-16   H248.84z" fill="#ffeebd"/><path d="M259.24,327.22c-4-1.6-8-3.2-10.4-4v27.2c8,4,12.8,8,12.8,13.6c0,6.4-4.8,9.6-12.8,11.2v41.6h8   v-20.8c24-4,32.8-17.6,32.8-34.4C289.64,344.82,280.84,335.22,259.24,327.22z" fill="#ffeebd"/></g></g></defs><g fi:class="KUsePattern" opacity="0.5"><pattern id="pattern_L1_1" width="350" height="350" patternUnits="userSpaceOnUse"><use xlink:href="#L1_1" x="-350" y="-350"/><use xlink:href="#L1_1" x="0" y="-350"/><use xlink:href="#L1_1" x="350" y="-350"/><use xlink:href="#L1_1" x="-350" y="0"/><use xlink:href="#L1_1" x="0" y="0"/><use xlink:href="#L1_1" x="350" y="0"/><use xlink:href="#L1_1" x="-350" y="350"/><use xlink:href="#L1_1" x="0" y="350"/><use xlink:href="#L1_1" x="350" y="350"/></pattern><rect x="0" y="0" width="100%" height="100%" fill="url(#pattern_L1_1)"/></g><g fi:class="KUsePattern" opacity="0.5"><pattern id="pattern_L1_15" width="350" height="350" patternUnits="userSpaceOnUse"><use xlink:href="#L1_15" x="-350" y="-350"/><use xlink:href="#L1_15" x="0" y="-350"/><use xlink:href="#L1_15" x="350" y="-350"/><use xlink:href="#L1_15" x="-350" y="0"/><use xlink:href="#L1_15" x="0" y="0"/><use xlink:href="#L1_15" x="350" y="0"/><use xlink:href="#L1_15" x="-350" y="350"/><use xlink:href="#L1_15" x="0" y="350"/><use xlink:href="#L1_15" x="350" y="350"/></pattern><rect x="0" y="0" width="100%" height="100%" fill="url(#pattern_L1_15)"/></g><g fi:class="KUsePattern" opacity="0.5"><pattern id="pattern_L1_16" width="350" height="350" patternUnits="userSpaceOnUse"><use xlink:href="#L1_16" x="-350" y="-350"/><use xlink:href="#L1_16" x="0" y="-350"/><use xlink:href="#L1_16" x="350" y="-350"/><use xlink:href="#L1_16" x="-350" y="0"/><use xlink:href="#L1_16" x="0" y="0"/><use xlink:href="#L1_16" x="350" y="0"/><use xlink:href="#L1_16" x="-350" y="350"/><use xlink:href="#L1_16" x="0" y="350"/><use xlink:href="#L1_16" x="350" y="350"/></pattern><rect x="0" y="0" width="100%" height="100%" fill="url(#pattern_L1_16)"/></g><g fi:class="KUsePattern" transform="matrix(1 0 0 1 20 20)" opacity="0.5"><pattern id="pattern_UNKNOWN" width="350" height="350" patternUnits="userSpaceOnUse"><use xlink:href="#UNKNOWN" x="-350" y="-350"/><use xlink:href="#UNKNOWN" x="0" y="-350"/><use xlink:href="#UNKNOWN" x="350" y="-350"/><use xlink:href="#UNKNOWN" x="-350" y="0"/><use xlink:href="#UNKNOWN" x="0" y="0"/><use xlink:href="#UNKNOWN" x="350" y="0"/><use xlink:href="#UNKNOWN" x="-350" y="350"/><use xlink:href="#UNKNOWN" x="0" y="350"/><use xlink:href="#UNKNOWN" x="350" y="350"/></pattern><rect x="0" y="0" width="100%" height="100%" fill="url(#pattern_UNKNOWN)"/></g></svg>